<svg width="19" height="19" viewBox="0 0 19 19" fill="none" xmlns="http://www.w3.org/2000/svg">
<path d="M0.849609 3.31556C0.849609 2.73835 1.05232 2.26216 1.45772 1.88699C1.86312 1.5118 2.39016 1.32422 3.0388 1.32422C3.67587 1.32422 4.1913 1.50891 4.58513 1.87833C4.99053 2.25928 5.19324 2.75566 5.19324 3.36751C5.19324 3.92162 4.99633 4.38337 4.6025 4.75279C4.19711 5.13374 3.66428 5.32422 3.00405 5.32422H2.98668C2.3496 5.32422 1.83417 5.13374 1.44034 4.75279C1.04651 4.37184 0.849609 3.89275 0.849609 3.31556ZM1.07548 18.4671V6.89997H4.93262V18.4671H1.07548ZM7.06969 18.4671H10.9268V12.0082C10.9268 11.6041 10.9732 11.2925 11.0658 11.0731C11.228 10.6806 11.4741 10.3487 11.8042 10.0775C12.1344 9.80617 12.5484 9.67054 13.0465 9.67054C14.3438 9.67054 14.9925 10.5421 14.9925 12.2853V18.4671H18.8496V11.835C18.8496 10.1265 18.4442 8.83071 17.6334 7.94759C16.8226 7.06448 15.7512 6.62292 14.4191 6.62292C12.9249 6.62292 11.7608 7.26361 10.9268 8.54499V8.57963H10.9095L10.9268 8.54499V6.89997H7.06969C7.09285 7.26938 7.10444 8.418 7.10444 10.3459C7.10444 12.2737 7.09285 14.9808 7.06969 18.4671Z" fill="#B3B3B3"/>
</svg>
