<svg width="85" height="85" viewBox="0 0 85 85" fill="none" xmlns="http://www.w3.org/2000/svg">
<circle cx="42.5" cy="42.5" r="42.5" fill="#E83D46" fill-opacity="0.15"/>
<path d="M35.5625 37.6875C35.5625 35.715 36.3461 33.8232 37.7409 32.4284C39.1357 31.0336 41.0275 30.25 43 30.25C44.9725 30.25 46.8643 31.0336 48.2591 32.4284C49.6539 33.8232 50.4375 35.715 50.4375 37.6875C50.4375 37.9693 50.5494 38.2395 50.7487 38.4388C50.948 38.6381 51.2182 38.75 51.5 38.75C51.7818 38.75 52.052 38.6381 52.2513 38.4388C52.4506 38.2395 52.5625 37.9693 52.5625 37.6875C52.5624 36.0567 52.1452 34.453 51.3505 33.0289C50.5559 31.6048 49.4103 30.4076 48.0225 29.551C46.6348 28.6945 45.0511 28.2071 43.4218 28.1351C41.7926 28.0632 40.1721 28.4091 38.7143 29.14C37.2564 29.8709 36.0097 30.9625 35.0927 32.311C34.1756 33.6595 33.6187 35.2202 33.4748 36.8446C33.3309 38.4691 33.6049 40.1033 34.2706 41.592C34.9363 43.0808 35.9718 44.3745 37.2784 45.3503C38.3989 46.1873 39.6894 46.7683 41.0588 47.0524C41.249 47.4791 41.5746 47.8312 41.9851 48.0542C42.3955 48.2773 42.8681 48.3589 43.3296 48.2863C43.7911 48.2138 44.2159 47.9912 44.5381 47.653C44.8604 47.3147 45.0622 46.8797 45.1124 46.4153C45.1625 45.9508 45.0582 45.4827 44.8156 45.0835C44.573 44.6843 44.2056 44.3761 43.7702 44.2067C43.3348 44.0373 42.8558 44.0161 42.4071 44.1464C41.9585 44.2767 41.5653 44.5511 41.2883 44.9274C39.658 44.5418 38.2056 43.6172 37.1664 42.3032C36.1272 40.9891 35.562 39.3628 35.5625 37.6875ZM36.625 37.6875C36.6254 36.5147 36.9493 35.3648 37.5612 34.3642C38.173 33.3636 39.0489 32.5512 40.0927 32.0163C41.1364 31.4815 42.3074 31.2449 43.4769 31.3326C44.6465 31.4204 45.7691 31.829 46.7213 32.5136C47.6736 33.1983 48.4185 34.1323 48.8742 35.2129C49.3298 36.2936 49.4786 37.479 49.304 38.6387C49.1294 39.7985 48.6383 40.8876 47.8847 41.7862C47.1311 42.6848 46.1442 43.3581 45.0326 43.7321C44.4609 43.2589 43.7421 43 43 43C42.2276 43 41.5199 43.2752 40.9674 43.7321C39.7017 43.3063 38.6017 42.4938 37.8226 41.4093C37.0434 40.3247 36.6245 39.0229 36.625 37.6875ZM43 33.4375C41.8728 33.4375 40.7918 33.8853 39.9948 34.6823C39.1978 35.4793 38.75 36.5603 38.75 37.6875C38.75 38.8147 39.1978 39.8957 39.9948 40.6927C40.7918 41.4897 41.8728 41.9375 43 41.9375C44.1272 41.9375 45.2082 41.4897 46.0052 40.6927C46.8022 39.8957 47.25 38.8147 47.25 37.6875C47.25 36.5603 46.8022 35.4793 46.0052 34.6823C45.2082 33.8853 44.1272 33.4375 43 33.4375ZM33.9688 45.125H35.4127C36.2668 45.9976 37.2649 46.7165 38.3632 47.25H33.9688C33.5461 47.25 33.1407 47.4179 32.8418 47.7168C32.5429 48.0157 32.375 48.4211 32.375 48.8438V49.375C32.375 50.9401 33.3737 52.5083 35.3064 53.7376C37.2264 54.9595 39.9432 55.75 42.9989 55.75C46.0568 55.75 48.7736 54.9595 50.6936 53.7376C52.6273 52.5094 53.625 50.939 53.625 49.375V48.8438C53.625 48.4211 53.4571 48.0157 53.1582 47.7168C52.8593 47.4179 52.4539 47.25 52.0312 47.25H46.0069C46.2499 46.5625 46.2499 45.8125 46.0069 45.125H52.0312C53.0175 45.125 53.9634 45.5168 54.6608 46.2142C55.3582 46.9116 55.75 47.8575 55.75 48.8438V49.375C55.75 51.9176 54.1318 54.0681 51.8347 55.5301C49.5248 57.0006 46.3979 57.875 43 57.875C39.6021 57.875 36.4762 57.0006 34.1653 55.5301C31.8682 54.0681 30.25 51.9176 30.25 49.375V48.8438C30.25 47.8575 30.6418 46.9116 31.3392 46.2142C32.0366 45.5168 32.9825 45.125 33.9688 45.125Z" fill="#E83D46"/>
</svg>
