<svg width="85" height="85" viewBox="0 0 85 85" fill="none" xmlns="http://www.w3.org/2000/svg">
<circle cx="42.5" cy="42.5" r="42.5" fill="#E83D46" fill-opacity="0.15"/>
<path d="M40.7881 28.9776C41.0684 28.6697 41.4099 28.4236 41.7908 28.2553C42.1717 28.087 42.5836 28 43 28C43.4164 28 43.8283 28.087 44.2092 28.2553C44.5901 28.4236 44.9316 28.6697 45.2119 28.9776L46.7374 30.6527C47.0336 30.9778 47.3979 31.2337 47.8042 31.4019C48.2106 31.5702 48.6491 31.6468 49.0884 31.6263L51.3512 31.5216C51.767 31.502 52.1823 31.5694 52.5706 31.7195C52.9589 31.8696 53.3115 32.0991 53.606 32.3933C53.9005 32.6875 54.1303 33.04 54.2808 33.4281C54.4313 33.8162 54.4991 34.2315 54.4799 34.6473L54.3737 36.9116C54.3532 37.3509 54.4298 37.7894 54.5981 38.1958C54.7664 38.6022 55.0222 38.9664 55.3473 39.2626L57.0224 40.7881C57.3303 41.0684 57.5764 41.4099 57.7447 41.7908C57.913 42.1717 58 42.5836 58 43C58 43.4164 57.913 43.8283 57.7447 44.2092C57.5764 44.5901 57.3303 44.9316 57.0224 45.2119L55.3473 46.7374C55.0222 47.0336 54.7664 47.3979 54.5981 47.8042C54.4298 48.2106 54.3532 48.6491 54.3737 49.0884L54.4784 51.3512C54.498 51.767 54.4306 52.1823 54.2805 52.5706C54.1304 52.9589 53.9009 53.3115 53.6067 53.606C53.3125 53.9005 52.96 54.1303 52.5719 54.2808C52.1838 54.4313 51.7685 54.4991 51.3527 54.4799L49.0884 54.3737C48.6491 54.3532 48.2106 54.4298 47.8042 54.5981C47.3979 54.7664 47.0336 55.0222 46.7374 55.3473L45.2119 57.0224C44.9316 57.3303 44.5901 57.5764 44.2092 57.7447C43.8283 57.913 43.4164 58 43 58C42.5836 58 42.1717 57.913 41.7908 57.7447C41.4099 57.5764 41.0684 57.3303 40.7881 57.0224L39.2626 55.3473C38.9664 55.0222 38.6022 54.7664 38.1958 54.5981C37.7894 54.4298 37.3509 54.3532 36.9116 54.3737L34.6488 54.4784C34.233 54.498 33.8177 54.4306 33.4294 54.2805C33.0411 54.1304 32.6885 53.9009 32.394 53.6067C32.0995 53.3125 31.8697 52.96 31.7192 52.5719C31.5687 52.1838 31.5009 51.7685 31.5201 51.3527L31.6263 49.0884C31.6468 48.6491 31.5702 48.2106 31.4019 47.8042C31.2337 47.3979 30.9778 47.0336 30.6527 46.7374L28.9776 45.2119C28.6697 44.9316 28.4236 44.5901 28.2553 44.2092C28.087 43.8283 28 43.4164 28 43C28 42.5836 28.087 42.1717 28.2553 41.7908C28.4236 41.4099 28.6697 41.0684 28.9776 40.7881L30.6527 39.2626C30.9778 38.9664 31.2337 38.6022 31.4019 38.1958C31.5702 37.7894 31.6468 37.3509 31.6263 36.9116L31.5216 34.6488C31.502 34.233 31.5694 33.8177 31.7195 33.4294C31.8696 33.0411 32.0991 32.6885 32.3933 32.394C32.6875 32.0995 33.04 31.8697 33.4281 31.7192C33.8162 31.5687 34.2315 31.5009 34.6473 31.5201L36.9116 31.6263C37.3509 31.6468 37.7894 31.5702 38.1958 31.4019C38.6022 31.2337 38.9664 30.9778 39.2626 30.6527L40.7881 28.9776Z" stroke="#E83D46" stroke-width="2.8"/>
<path d="M38.5133 43.0002L41.5044 45.9913L47.4867 40.0091" stroke="#E83D46" stroke-width="2.8" stroke-linecap="round" stroke-linejoin="round"/>
</svg>
