<svg width="85" height="85" viewBox="0 0 85 85" fill="none" xmlns="http://www.w3.org/2000/svg">
<circle cx="42.5" cy="42.5" r="42.5" fill="#E83D46" fill-opacity="0.15"/>
<g clip-path="url(#clip0_190_20)">
<path d="M51.781 28.125H43.6177C43.3639 28.1248 43.1204 28.2251 42.9403 28.4039L26.6203 44.7199C26.2631 45.0789 26.0625 45.5648 26.0625 46.0713C26.0625 46.5778 26.2631 47.0636 26.6203 47.4227L34.3898 55.1922C34.749 55.5495 35.235 55.7501 35.7415 55.7501C36.2481 55.7501 36.7341 55.5495 37.0932 55.1922L53.4086 38.8828C53.5874 38.7028 53.6877 38.4592 53.6875 38.2055V30.0375C53.6887 29.7865 53.6403 29.5378 53.545 29.3056C53.4497 29.0734 53.3094 28.8623 53.1322 28.6845C52.955 28.5068 52.7444 28.3658 52.5125 28.2698C52.2806 28.1738 52.032 28.1246 51.781 28.125Z" stroke="#E83D46" stroke-width="2.8" stroke-linecap="round" stroke-linejoin="round"/>
<path d="M48.375 35.5625C47.9547 35.5625 47.5439 35.4379 47.1944 35.2044C46.845 34.9709 46.5726 34.639 46.4118 34.2507C46.2509 33.8624 46.2088 33.4351 46.2908 33.0229C46.3728 32.6107 46.5752 32.2321 46.8724 31.9349C47.1696 31.6377 47.5482 31.4353 47.9604 31.3533C48.3726 31.2713 48.7999 31.3134 49.1882 31.4743C49.5765 31.6351 49.9084 31.9075 50.1419 32.2569C50.3754 32.6064 50.5 33.0172 50.5 33.4375C50.5 34.0011 50.2761 34.5416 49.8776 34.9401C49.4791 35.3386 48.9386 35.5625 48.375 35.5625Z" fill="#E83D46"/>
<path d="M40.2734 57.875L57.6719 40.4766C57.7584 40.3893 57.8265 40.2856 57.8721 40.1715C57.9178 40.0574 57.94 39.9353 57.9375 39.8125V31.3125" stroke="#E83D46" stroke-width="2.8" stroke-linecap="round" stroke-linejoin="round"/>
</g>
<defs>
<clipPath id="clip0_190_20">
<rect width="34" height="34" fill="white" transform="translate(25 26)"/>
</clipPath>
</defs>
</svg>
