<svg width="85" height="85" viewBox="0 0 85 85" fill="none" xmlns="http://www.w3.org/2000/svg">
<circle cx="42.5" cy="42.5" r="42.5" fill="#E83D46" fill-opacity="0.15"/>
<path d="M53.625 50.7917C53.625 51.731 53.2519 52.6318 52.5877 53.296C51.9235 53.9602 51.0226 54.3333 50.0833 54.3333C49.144 54.3333 48.2432 53.9602 47.579 53.296C46.9148 52.6318 46.5417 51.731 46.5417 50.7917C46.5417 49.8524 46.9148 48.9515 47.579 48.2873C48.2432 47.6231 49.144 47.25 50.0833 47.25C51.0226 47.25 51.9235 47.6231 52.5877 48.2873C53.2519 48.9515 53.625 49.8524 53.625 50.7917ZM39.4583 50.7917C39.4583 51.731 39.0852 52.6318 38.421 53.296C37.7568 53.9602 36.856 54.3333 35.9167 54.3333C34.9774 54.3333 34.0765 53.9602 33.4123 53.296C32.7481 52.6318 32.375 51.731 32.375 50.7917C32.375 49.8524 32.7481 48.9515 33.4123 48.2873C34.0765 47.6231 34.9774 47.25 35.9167 47.25C36.856 47.25 37.7568 47.6231 38.421 48.2873C39.0852 48.9515 39.4583 49.8524 39.4583 50.7917Z" stroke="#E83D46" stroke-width="2.5" stroke-linecap="round" stroke-linejoin="round"/>
<path d="M46.5417 50.7917H39.4584M53.625 50.7917H54.706C55.0176 50.7917 55.1735 50.7917 55.3038 50.7747C55.7728 50.7163 56.2089 50.5032 56.5432 50.1691C56.8775 49.8351 57.0909 49.3991 57.1497 48.9302C57.1667 48.7984 57.1667 48.6426 57.1667 48.3309V44.4167C57.1667 41.9745 56.1965 39.6323 54.4696 37.9054C52.7428 36.1785 50.4006 35.2083 47.9584 35.2083M28.8334 31.6667H43C45.0032 31.6667 46.0048 31.6667 46.6267 32.29C47.25 32.9105 47.25 33.9121 47.25 35.9167V47.9583M28.8334 44.0625V47.25C28.8334 48.5746 28.8334 49.2362 29.1181 49.7292C29.3046 50.0522 29.5729 50.3204 29.8959 50.5069C30.3889 50.7917 31.0505 50.7917 32.375 50.7917M28.8334 35.9167H37.3334M28.8334 40.1667H34.5" stroke="#E83D46" stroke-width="2.5" stroke-linecap="round" stroke-linejoin="round"/>
</svg>
